<svg xmlns="http://www.w3.org/2000/svg" width="512" height="512" viewBox="0 0 512 512">
  <rect width="512" height="512" rx="118" fill="#FFFFFF"/>
  <path fill="#111111" d="M143 106H286c8 0 12 8 8 15-15 25-34 45-58 60h-93c-21 0-37-16-37-37s16-38 37-38z"/>
  <path fill="none" stroke="#111111" stroke-width="74" stroke-linecap="round"
        d="M369 143C337 222 272 238 219 273c-38 25-62 56-76 96"/>
  <path fill="#111111" d="M277 331h92c21 0 37 17 37 38 0 20-16 37-37 37H225c-8 0-12-8-8-15 16-26 36-46 60-60z"/>
</svg>